<svg xmlns="http://www.w3.org/2000/svg" width="900" height="700" viewBox="0 0 900 700">
  <rect width="100%" height="100%" fill="white"/>
  <text x="450" y="52" text-anchor="middle" font-family="Arial, Helvetica, sans-serif" font-size="30" fill="#111">Distribution of Apartment Sizes</text>
  <line x1="110" y1="590" x2="820" y2="590" stroke="#222" stroke-width="3"/>
  <line x1="110" y1="100" x2="110" y2="590" stroke="#222" stroke-width="3"/>
  <g fill="#1f77b4">
    <rect x="125" y="170" width="55" height="420"/>
    <rect x="190" y="180" width="55" height="410"/>
    <rect x="255" y="210" width="55" height="380"/>
    <rect x="320" y="360" width="55" height="230"/>
    <rect x="385" y="375" width="55" height="215"/>
    <rect x="450" y="430" width="55" height="160"/>
    <rect x="515" y="470" width="55" height="120"/>
    <rect x="580" y="485" width="55" height="105"/>
    <rect x="645" y="530" width="55" height="60"/>
    <rect x="710" y="520" width="55" height="70"/>
  </g>
  <g font-family="Arial, Helvetica, sans-serif" font-size="22" fill="#111">
    <text x="465" y="650" text-anchor="middle">Area [sq meters]</text>
    <text x="40" y="355" text-anchor="middle" transform="rotate(-90 40 355)">Count</text>
    <text x="125" y="620" text-anchor="middle">30</text>
    <text x="255" y="620" text-anchor="middle">40</text>
    <text x="385" y="620" text-anchor="middle">50</text>
    <text x="515" y="620" text-anchor="middle">60</text>
    <text x="645" y="620" text-anchor="middle">70</text>
    <text x="775" y="620" text-anchor="middle">80+</text>
  </g>
</svg>
